<?xml version="1.0" encoding="UTF-8"?>
<svg id="Layer_2" xmlns="http://www.w3.org/2000/svg" viewBox="0 0 255.4 255.34">
  <g id="Layer_1-2" data-name="Layer_1">
    <path d="M109.85,127.69c-1.41-1.49-2.61-2.82-3.87-4.09C72.25,89.87,38.5,56.16,4.79,22.4-2.98,14.62-.79,3.54,9,.57c5.19-1.57,9.42.23,13.08,3.91,7.98,8.01,15.98,15.98,23.98,23.98,27.03,27.03,54.06,54.06,81.51,81.51,1.5-1.42,2.91-2.71,4.26-4.06,33.74-33.72,67.46-67.47,101.22-101.16,7.75-7.73,18.88-5.43,21.8,4.38,1.36,4.57.11,8.57-3.01,11.97-2.58,2.82-5.37,5.44-8.08,8.14-31.38,31.38-62.76,62.76-94.17,94.11-1.29,1.29-2.83,2.32-5.36,5.68,1.65.84,3.65,1.34,4.9,2.58,33.68,33.55,67.27,67.18,100.92,100.76,4.02,4.01,6.58,8.35,4.64,14.23-2.76,8.38-12.37,11.42-19.39,6.09-1.44-1.1-2.68-2.48-3.97-3.77-33.15-33.14-66.3-66.27-99.42-99.44-1.28-1.28-2.18-2.92-3.44-4.65-2.17,2.03-3.51,3.21-4.77,4.46-33.62,33.6-67.25,67.19-100.84,100.84-3.89,3.89-8.11,6.36-13.79,4.66-8.66-2.59-11.87-12.47-6.34-19.6,1.11-1.44,2.48-2.68,3.77-3.97,33.14-33.14,66.29-66.28,99.43-99.43,1.27-1.27,2.48-2.6,3.91-4.1Z"/>
  </g>
</svg>