<?xml version="1.0" encoding="UTF-8"?>
<svg id="Layer_2" xmlns="http://www.w3.org/2000/svg" viewBox="0 0 255.33 255.35">
  <defs>
    <style>
      .cls-1 {
        fill: #f44336;
      }
    </style>
  </defs>
  <g id="Layer_1-2" data-name="Layer_1">
    <g>
      <path d="M127.63,157.24c11.13-11.14,21.8-21.62,32.21-32.34,3.13-3.23,6.44-4.68,10.95-4.66,24.76.15,49.53.09,74.3.05,3.99,0,7.72.26,9.58,4.59,1.88,4.37-.61,7.22-3.42,10.03-10.71,10.67-21.32,21.46-32.14,32.02-2.69,2.62-3.88,5.25-3.85,9.08.18,22.76.09,45.53.08,68.29,0,8.74-2.26,11.05-10.77,11.05-51.36,0-102.72,0-154.08,0-8.03,0-10.49-2.4-10.5-10.32-.02-23.1-.09-46.19.08-69.29.03-3.66-1.11-6.15-3.68-8.66-10.94-10.68-21.67-21.58-32.5-32.37-2.7-2.69-5-5.45-3.34-9.62,1.74-4.35,5.39-4.82,9.44-4.81,24.93.05,49.86.09,74.79-.04,4.34-.02,7.52,1.4,10.52,4.49,10.53,10.81,21.26,21.42,32.32,32.51ZM119.9,240.22v-64.66H55.36v64.66h64.54ZM135.33,239.93h64.62v-64.27h-64.62v64.27ZM108.12,160.36c.22-.49.44-.98.66-1.47-7.12-6.95-14.12-14.03-21.45-20.75-1.74-1.59-4.55-2.79-6.89-2.83-16.45-.24-32.91-.14-49.36-.11-1.35,0-2.7.28-5.04.53,7.83,7.81,14.75,14.96,22.01,21.75,1.71,1.59,4.55,2.7,6.9,2.75,11.96.27,23.93.13,35.9.13,5.76,0,11.51,0,17.27,0ZM146.77,159.16c.16.4.32.8.48,1.21,10.58,0,21.16.03,31.74-.01,8.47-.03,17.87,2.11,25.13-.89,7.26-2.99,12.41-11.15,18.45-17.07,2.05-2.01,4.01-4.12,6.31-6.49-1.27-.38-1.72-.64-2.17-.64-17.78-.04-35.57-.09-53.35,0-1.35,0-3.05.57-3.99,1.48-7.61,7.39-15.09,14.93-22.6,22.42Z"/>
      <path d="M135.02,111.85c0,3.49.1,5.65-.02,7.81-.26,4.5-3.01,7.27-7.16,7.36-4.14.09-7.04-2.48-7.52-7.01-.97-9.24-1.42-18.55-2.78-27.73-1.85-12.52-5.12-24.7-11.56-35.77-6.02-10.34-14.19-17.56-26.98-17.46-10,.08-17.17,4.73-19.53,12.47-2.3,7.57,1.18,15.95,9.02,21.46,6.74,4.74,14.43,6.51,22.52,6.98,2.15.13,4.35.12,6.42.63,3.94.97,5.79,3.77,5.45,7.77-.33,3.79-2.57,6.39-6.34,6.5-16.35.48-31.44-3.15-43.22-15.37-10.16-10.54-12.32-25.56-5.97-37.77,6.37-12.24,21.09-19.22,36.37-17.47,13.81,1.58,24.2,8.57,31.98,19.75,9.92,14.26,14.14,30.6,16.89,47.4,1.18,7.19,1.73,14.49,2.42,20.45Z"/>
      <path class="cls-1" d="M156.9,94.98c-2.06,0-3.72.1-5.38-.02-4.41-.31-7.16-3.19-7.15-7.35.01-4.09,2.71-6.95,7.2-7.4,5.61-.56,11.3-.55,16.82-1.54,9.51-1.7,17.99-5.76,24.66-13,13.12-14.26,8.83-32.92-9.34-39.57-4.75-1.74-9.98-2.34-15.05-2.99-5.43-.69-8.47-3.3-8.26-7.93.19-4.36,3.39-7.04,8.51-7.14,20.72-.39,38.55,10.91,44.48,28.16,5.65,16.43-.49,34.32-15.79,45.64-12.19,9.02-26.23,12.38-40.7,13.12Z"/>
      <path d="M135.72,4.72c1.49-1.28,2.54-2.36,3.75-3.2,3.36-2.35,6.62-1.89,9.42.92,2.66,2.67,3.26,6.11.93,9.01-2.98,3.72-6.42,7.17-10.1,10.21-2.87,2.37-6.3,1.84-9.09-.67-2.58-2.32-5.03-4.81-7.43-7.33-3.58-3.77-3.9-7.85-.98-11.03,3.18-3.47,6.99-3.38,11.34.27.62.52,1.24,1.05,2.15,1.82Z"/>
    </g>
  </g>
</svg>