<?xml version="1.0" encoding="UTF-8"?>
<svg id="Layer_2" xmlns="http://www.w3.org/2000/svg" viewBox="0 0 167.75 173.88">
  <defs>
    <style>
      .cls-1 {
        fill: #43489e;
      }
    </style>
  </defs>
  <g id="Layer_1-2" data-name="Layer_1">
    <g>
      <path d="M76.35,119.97c0-8.19.09-16.38-.05-24.57-.05-2.83.85-4.56,3.42-5.98,12.92-7.14,25.77-14.41,38.56-21.78,2.59-1.49,4.69-1.52,7.26-.05,12.92,7.37,25.9,14.65,38.92,21.84,2.19,1.21,3.1,2.73,3.1,5.14.02,16.95.07,33.9.18,50.86.02,2.56-.95,4.27-3.18,5.52-13.27,7.45-26.46,15.04-39.8,22.37-1.38.76-3.9.75-5.29,0-13.36-7.28-26.58-14.82-39.87-22.23-2.24-1.25-3.23-2.94-3.21-5.5.07-8.53.03-17.07.03-25.6h-.08ZM118.07,163.74c0-14.04-.05-27.66.05-41.28.02-2.32-.64-3.64-2.74-4.77-9.27-5.03-18.43-10.26-27.64-15.4-1.03-.57-2.11-1.05-3.17-1.58-.22.5-.38.7-.38.9.02,13.75.03,27.5.15,41.25,0,.92.69,2.25,1.46,2.7,10.62,6.08,21.3,12.04,32.26,18.19ZM159.8,100.2c-11.27,6.36-21.92,12.33-32.51,18.42-.7.4-1.32,1.61-1.33,2.45-.08,14.12-.06,28.23-.06,42.76,11.14-6.29,21.9-12.33,32.61-18.48.68-.39,1.23-1.62,1.23-2.47.08-13.97.05-27.94.05-42.68ZM155.69,93.45c-10.95-6.16-21.52-12.14-32.15-18.02-.8-.44-2.26-.48-3.04-.04-10.62,5.9-21.17,11.91-31.79,17.93.3.38.45.74.72.89,10.39,5.85,20.76,11.72,31.23,17.42.89.49,2.63.1,3.66-.46,6.09-3.3,12.09-6.76,18.11-10.18,4.32-2.45,8.64-4.91,13.26-7.54Z"/>
      <path class="cls-1" d="M49.59,132.96c5.02-2.82,9.65-5.39,14.24-8.02,1.85-1.06,3.64-1.35,5.32.21,1.84,1.7,1.54,4.69-.86,6.1-6.85,4.02-13.76,7.96-20.77,11.71-1.05.56-2.99.38-4.09-.22-13.52-7.46-26.95-15.09-40.44-22.61-2.04-1.14-2.87-2.71-2.88-4.97-.05-17.18-.2-34.36-.07-51.53.01-1.54,1.38-3.72,2.75-4.51,13.05-7.59,26.26-14.92,39.38-22.41,2.33-1.33,4.35-1.39,6.68-.06,13.14,7.45,26.36,14.74,39.43,22.32,1.44.83,2.46,3.04,2.88,4.8.49,2.04.1,4.3.12,6.46.02,2.61-1.02,4.65-3.73,4.83-2.55.17-3.85-1.58-4.09-4.08-.03-.31-.21-.61-.45-1.29-3.63,2.04-7.15,4.02-10.67,6-6.82,3.85-13.67,7.66-20.43,11.61-1,.58-2.22,1.89-2.23,2.88-.14,14.08-.1,28.16-.1,42.8ZM7.95,69.59c0,14.63-.05,28.59.1,42.55.01,1.08,1.26,2.54,2.32,3.15,8.74,5.04,17.57,9.92,26.38,14.85,1.64.92,3.29,1.83,4.99,2.77,0-14.14.03-27.86-.06-41.59,0-1.19-.45-3-1.28-3.48-10.58-6.1-21.27-12.02-32.45-18.27ZM79.36,62.66c-11.16-6.27-21.74-12.23-32.36-18.13-.66-.37-1.84-.5-2.46-.16-10.78,6-21.5,12.09-32.65,18.39,11.1,6.23,21.77,12.25,32.5,18.17.7.39,2.03.28,2.77-.13,10.61-5.91,21.17-11.9,32.21-18.14Z"/>
      <path d="M147.38,33.47c-11.26,6.37-21.96,12.34-32.51,18.55-.94.56-1.32,2.66-1.35,4.07-.13,4.72-1.19,6.74-3.92,6.69-2.71-.05-4-2.06-3.82-6.78.09-2.47-.65-3.84-2.89-5.05-9.39-5.08-18.66-10.39-27.98-15.6-.88-.49-1.78-.92-3.02-1.55-.11.9-.19,1.51-.27,2.12-.29,2.34-1.83,3.74-3.94,3.15-1.41-.39-3.22-2.03-3.46-3.36-.53-2.98-.43-6.14-.09-9.18.13-1.18,1.36-2.61,2.48-3.26,13.3-7.64,26.64-15.21,40.08-22.6,1.41-.77,3.92-.94,5.28-.21,13.58,7.37,27.05,14.93,40.44,22.64,1.27.73,2.47,2.82,2.5,4.3.21,13.43.15,26.86.18,40.29,0,2.69-.69,4.92-3.87,4.84-3.09-.07-3.86-2.25-3.85-4.95.02-11.15,0-22.3,0-34.13ZM75.82,26.95c11.15,6.27,21.78,12.3,32.49,18.17.79.43,2.36,0,3.3-.52,9.71-5.39,19.37-10.88,29.04-16.36.72-.41,1.36-.97,2.3-1.65-10.86-6.09-21.3-12.02-31.85-17.76-.96-.52-2.81-.22-3.88.36-9.14,5.03-18.19,10.21-27.27,15.35-1.24.7-2.46,1.44-4.12,2.41Z"/>
    </g>
  </g>
</svg>