<?xml version="1.0" encoding="UTF-8"?>
<svg id="Layer_2" xmlns="http://www.w3.org/2000/svg" viewBox="0 0 187.98 133.15">
  <defs>
    <style>
      .cls-1 {
        fill: #43489e;
      }
    </style>
  </defs>
  <g id="Layer_1-2" data-name="Layer_1">
    <g>
      <path class="cls-1" d="M109.96,49.89c12.83,5.84,21.62,14.98,25.37,28.42,1.04,3.72,1.58,7.67,1.71,11.53.26,7.57.2,15.15.06,22.72-.23,12.11-8.22,20.29-20.28,20.44-15.28.2-30.56.21-45.83-.01-10.97-.16-19.08-7.03-19.71-17.73-.64-10.93-.88-22.09.56-32.9,1.86-14.01,10.29-24.22,22.87-30.81.97-.51,1.95-.99,2.92-1.5.06-.03.06-.19.08-.3-16.63-14.35-11.94-33.52-2.69-42.18,11.06-10.34,28.12-10.07,38.6.64,9.62,9.83,12.06,28.52-3.67,41.67ZM94.07,125.17c7.83,0,15.66.07,23.48-.02,5.96-.07,11.41-4.47,11.51-10.19.19-10.61.63-21.36-.75-31.82-2.15-16.3-17.5-28.4-34.19-28.42-16.92-.03-32.18,12.03-34.47,28.55-1.33,9.61-.75,19.49-.86,29.26-.08,7.75,4.83,12.61,12.52,12.64,7.58.04,15.17,0,22.75,0ZM93.84,46.79c10.89.07,19.67-8.49,19.82-19.31.15-10.58-8.83-19.67-19.49-19.73-10.74-.06-19.68,8.69-19.83,19.4-.15,10.7,8.66,19.58,19.5,19.65Z"/>
      <path d="M20.74,53.81c-13.19-12.33-9.86-27.42-2.12-35.12,9.1-9.07,23.49-9.37,32.69-.59,10.38,9.91,9.91,23.26-1.35,35.7.5.36.98.71,1.46,1.06,2.02,1.48,2.59,3.72,1.02,5.36-1.01,1.05-3.66,1.63-5.01,1.08-6.69-2.76-13.38-3.59-20.35-1.42-10.94,3.42-18.66,13.33-19.05,24.76-.19,5.62-.15,11.25-.05,16.87.14,7.15,4.95,11.85,12.07,11.92,5.87.06,11.74.07,17.61-.01,2.86-.04,5.44.51,5.57,3.81.14,3.37-2.47,4.13-5.3,4.09-6.96-.09-13.96.22-20.87-.45-9-.88-16.14-7.75-16.72-16.72-.55-8.48-.54-17.18.72-25.56,1.49-9.98,7.63-17.51,16.31-22.79,1.03-.63,2.08-1.22,3.36-1.96ZM50.85,35.32c.07-8.68-6.74-15.72-15.3-15.83-8.65-.11-15.69,6.7-15.82,15.31-.14,8.84,6.77,16.02,15.48,16.09,8.51.07,15.57-6.96,15.64-15.56Z"/>
      <path d="M137.92,53.73c-11-12.71-11.56-25.55-1.54-35.35,8.83-8.63,22.89-8.95,31.88-.73,10.78,9.86,10.54,22.41-.31,35.65,4.1,3.62,8.56,6.88,12.17,10.9,5.3,5.92,7.62,13.26,7.8,21.2.11,5.01.03,10.02.02,15.03-.02,12.1-7.84,20.41-19.86,20.83-6.11.22-12.22.06-18.34.04-2.72-.01-5.09-.91-4.99-4.05.1-3.05,2.37-3.88,5.17-3.85,5.99.07,11.98.06,17.97,0,7.13-.06,12.04-4.76,12.1-11.88.06-6.96.69-14.08-.53-20.85-3.13-17.37-21.44-26.64-37.78-19.69-2.47,1.05-4.84,1.79-6.38-.96-1.51-2.7.08-4.61,2.42-6.01.09-.06.13-.2.19-.31ZM168.28,35.14c0-8.67-6.88-15.61-15.48-15.65-8.62-.03-15.58,6.86-15.64,15.5-.06,8.8,7.03,16,15.67,15.9,8.57-.1,15.46-7.11,15.45-15.75Z"/>
    </g>
  </g>
</svg>