<?xml version="1.0" encoding="UTF-8"?>
<svg id="Layer_2" xmlns="http://www.w3.org/2000/svg" viewBox="0 0 182.92 182.86">
  <g id="Layer_1-2" data-name="Layer_1">
    <path d="M132.6,139.98c-38.32,31.97-89.59,21.85-115.18-10.37C-7.84,97.79-5.43,52.16,23.35,23.35c28.74-28.77,74.47-31.19,106.28-5.95,32.25,25.59,42.34,76.8,10.03,115.57,4.27,3.98,8.71,7.93,12.95,12.11,9.23,9.1,18.33,18.32,27.52,27.45,2.66,2.65,4.13,5.59,1.09,8.63-3.03,3.04-5.97,1.59-8.62-1.08-13.23-13.31-26.5-26.58-40-40.1ZM79.71,10.64c-38.17,0-69.04,30.86-69.06,69.05-.02,38.15,30.86,69.18,68.94,69.29,38.21.11,69.53-31.21,69.42-69.42-.1-38.07-31.11-68.91-69.31-68.91Z"/>
  </g>
</svg>