<?xml version="1.0" encoding="UTF-8"?>
<svg id="Layer_2" xmlns="http://www.w3.org/2000/svg" viewBox="0 0 152.42 170.27">
  <defs>
    <style>
      .cls-1 {
        fill: #43489e;
      }
    </style>
  </defs>
  <g id="Layer_1-2" data-name="Layer_1">
    <g>
      <path d="M65.74,13.31c-2.12,0-3.86.04-5.61,0-3.98-.12-6.91-2.89-6.97-6.54-.06-3.63,2.87-6.66,6.79-6.7,8.31-.08,16.62-.09,24.93,0,4.09.04,6.73,2.8,6.71,6.66-.02,3.85-2.68,6.44-6.8,6.58-1.76.06-3.53,0-5.77,0,0,3.78-.09,7.4.09,11,.03.56,1.28,1.43,2.03,1.52,14.01,1.64,26.36,7.11,37.08,15.72,2.77-2.86,5.51-5.68,8.53-8.8-.72-.75-2.1-2.12-3.4-3.56-2.71-3.02-2.71-6.92-.04-9.51,2.53-2.46,6.55-2.59,9.29.07,6.05,5.86,12,11.81,17.85,17.87,2.68,2.77,2.54,6.75.08,9.29-2.54,2.61-6.61,2.63-9.54-.1-1.29-1.2-2.33-2.67-3.42-3.95-3.18,3.31-5.97,6.21-8.85,9.21,8.18,10.2,13.57,22.21,15.45,35.82,4.43,32.06-13.03,63.31-42.77,76.26C57.89,183.12,8.64,156.06.93,108.97-5.38,70.33,21.01,33.19,59.53,26.52q6.21-1.07,6.21-7.35c0-1.85,0-3.7,0-5.86ZM131.54,97.82c.06-32.68-26.32-59.19-58.94-59.25-32.59-.05-59.23,26.36-59.42,58.91-.2,32.4,26.53,59.35,58.92,59.42,32.91.06,59.38-26.24,59.44-59.08Z"/>
      <path class="cls-1" d="M78.99,91.1c6.9,0,13.31,0,19.71,0,5.31,0,8.12,2.27,8.16,6.55.04,4.32-2.79,6.72-7.99,6.72-8.41.01-16.82.02-25.23,0-5.23-.01-7.84-2.45-7.87-7.66-.08-12.28-.06-24.56,0-36.85.02-4.79,2.72-7.9,6.66-7.92,4-.02,6.55,2.99,6.56,7.88.03,9.07,0,18.15,0,27.22,0,1.2,0,2.39,0,4.05Z"/>
    </g>
  </g>
</svg>