<?xml version="1.0" encoding="UTF-8"?>
<svg id="Layer_2" xmlns="http://www.w3.org/2000/svg" viewBox="0 0 241.29 255.67">
  <defs>
    <style>
      .cls-1 {
        fill: #2f469d;
      }
    </style>
  </defs>
  <g id="Layer_1-2" data-name="Layer_1">
    <g>
      <path d="M119.49,13.9c.28-4.61.53-8.83.84-13.9,2.07.91,3.37,1.2,4.29,1.94,7.12,5.72,14.18,11.51,21.23,17.31,2.9,2.39,3.9,5.28.79,8.01-7.36,6.46-14.92,12.69-22.44,18.97-.59.49-1.47.62-3.4,1.39-.3-4.86-.57-9.16-.88-13.97-10.02-.18-19.53,1.48-28.87,4.32-41.01,12.49-72.57,50.57-71.81,98.05.76,47.16,32.4,86.54,77.32,97.32,24.59,5.9,48.4,3.02,71.06-8.56,2.72-1.39,5.89-2.81,8.8-2.71,4.52.16,7.59,3.21,8.41,7.83.82,4.63-1.17,8.06-5.19,10.33-13.15,7.4-27.21,12.3-42.14,14.24-30.67,3.98-59.46-1.85-84.68-19.89C11.73,205.2-6.06,164.89,1.82,114.81,9.94,63.26,50.35,23.78,101.38,15.64c5.86-.93,11.83-1.16,18.11-1.74Z"/>
      <path class="cls-1" d="M98.74,77.38c-3.46-2.79-3.1-12.51.6-15.03.85-.58,2.55-.4,3.67-.02,25.9,8.72,51.76,17.55,77.66,26.26,3.05,1.02,3.94,2.56,2.71,5.53-.88,2.14-1.4,4.43-2.3,6.55-.41.95-1.52,2.47-2.06,2.37-4.75-.87-4.79,2.78-5.75,5.62-1.38,4.08-2.79,8.14-4.19,12.21-2.31,6.71-7.04,10.64-13.91,12.13-6.64,1.43-13.29,2.83-19.91,4.34-5.03,1.15-6.35,4.98-3.1,8.96,4.73,5.78,9.47,11.57,14.36,17.22,3.83,4.42,4.94,9.2,2.99,14.75-1.98,5.62-3.8,11.3-5.55,16.53,1.27,1.71,3.53,3.46,3.27,4.63-.87,3.79-2.56,7.43-4.25,10.97-.19.4-2.47.09-3.65-.31-25.73-8.69-51.43-17.47-77.18-26.11-3.34-1.12-4.21-2.73-2.74-5.88.69-1.49,1.11-3.12,1.51-4.72.85-3.35,2.33-5.58,6.33-3.46,1.82-5.2,3.63-10,5.17-14.88,2.33-7.38,7.24-11.58,14.81-13.04,6.34-1.23,12.63-2.72,18.93-4.16,5.81-1.34,6.93-4.97,3.06-9.59-4.8-5.73-9.46-11.58-14.37-17.2-3.68-4.22-4.23-8.87-2.62-13.94,2.1-6.62,4.34-13.19,6.5-19.71ZM136,193.35c1.98-5.84,3.61-11.2,5.62-16.41,1.36-3.54.7-6.26-1.75-9.06-5.34-6.12-10.46-12.44-15.69-18.66-4.81-5.72-.97-17.33,6.33-18.97,7.75-1.75,15.56-3.22,23.23-5.25,2.37-.63,5.44-2.19,6.34-4.16,3.03-6.67,5.22-13.72,7.82-20.85-20.81-7.07-40.8-13.86-61.31-20.82-2.38,7.17-4.9,13.97-6.78,20.94-.49,1.83.43,4.64,1.68,6.24,5.19,6.68,10.78,13.03,16.15,19.57,4.76,5.79.86,17.25-6.43,18.92-7.74,1.77-15.6,3.14-23.21,5.34-2.7.78-5.85,2.99-7.04,5.41-2.6,5.26-4.08,11.07-6.13,16.99,20.42,6.94,40.44,13.74,61.18,20.79Z"/>
      <path d="M180.04,31.18c5.79,1.03,14.33,6.86,15.85,11.36,1.29,3.82.42,7.32-2.46,10.03-2.84,2.68-6.43,3.84-10.08,1.94-3.2-1.66-6.39-3.64-9-6.09-2.98-2.79-4.23-6.81-1.79-10.39,1.85-2.72,4.94-4.6,7.47-6.86Z"/>
      <path class="cls-1" d="M241.24,142.37c-.06.54-.07,2.56-.51,4.47-1.15,4.97-5.47,8.31-10.01,7.94-4.75-.39-8.75-4.12-9.01-9.08-.18-3.44.13-7,.87-10.36.91-4.2,5.38-6.83,9.97-6.51,4.45.31,8.15,3.72,8.67,8.12.16,1.31.02,2.65.02,5.42Z"/>
      <path class="cls-1" d="M214.3,207.77c-.1,5.5-7.96,13.88-13.42,14.3-6.72.52-12.84-6-9.98-11.75,2.28-4.58,6.44-8.94,10.87-11.54,5.51-3.25,12.65,2.42,12.53,8.99Z"/>
      <path d="M238.13,106.39c-.6,5.68-2.83,8.97-7.29,10.3-4.33,1.3-8.33-.08-10.31-3.91-1.92-3.72-3.21-8.06-3.56-12.22-.38-4.59,2.69-7.78,7.14-8.99,4.33-1.18,8.18.34,10.22,4.2,1.9,3.59,2.79,7.71,3.8,10.62Z"/>
      <path d="M224.36,165.04c2.35,1.32,5.13,2.21,6.96,4.05,3.13,3.14,2.95,7.14,1.24,11.09-2.02,4.67-3.34,9.95-9.65,10.76-6.86.88-12.35-4.51-10.68-11.2,2.4-9.62,5.42-13.89,12.13-14.69Z"/>
      <path class="cls-1" d="M223.51,74.11c-2.26,2.52-4.11,5.67-6.87,7.4-3.24,2.03-7.25,1.52-10.01-1.45-2.45-2.63-4.65-5.62-6.37-8.77-2.02-3.71-1.1-7.4,1.78-10.47,2.95-3.15,6.65-3.58,10.51-2.27,4.19,1.43,9.91,10.13,10.96,15.56Z"/>
    </g>
  </g>
</svg>